<svg width="554" height="559" viewBox="0 0 554 559" fill="none" xmlns="http://www.w3.org/2000/svg">
<rect x="11" y="6" width="532" height="547" rx="30" fill="#EBF9FA" stroke="white" stroke-width="12"/>
<g clip-path="url(#clip0_14_204)">
<path d="M322.704 216.044C333.087 216.044 341.504 207.626 341.504 197.241C341.504 186.856 333.087 178.437 322.704 178.437C312.321 178.437 303.904 186.856 303.904 197.241C303.904 207.626 312.321 216.044 322.704 216.044Z" fill="#F2F2F2"/>
<path d="M468.542 495.108C496.486 473.82 509.833 438.048 501.477 403.923C501.269 403.075 501.05 402.229 500.82 401.385C495.28 381.129 481.575 361.878 461.601 355.405C444.83 349.971 426.523 354.15 409.026 351.989C374.679 347.746 348.051 319.951 329.314 290.848C310.578 261.746 296.178 229.17 271.281 205.127C230.243 165.496 163.299 156.963 112.418 182.76C61.5361 208.557 29.125 265.789 30.5073 322.828C31.8896 379.867 65.7449 434.4 114.911 463.333C132.973 473.962 153.863 481.492 174.653 478.857C192.692 476.571 209.083 466.876 227.037 463.998C255.265 459.473 283.313 472.238 307.729 487.114C332.144 501.989 355.727 519.621 383.472 526.517C410.412 533.213 443.788 513.966 468.542 495.108Z" fill="#F2F2F2"/>
<path d="M428.393 183.958C427.78 183.549 427.161 183.162 426.548 182.768C408.841 171.441 389.861 162.239 370.002 155.352L365.397 218.888H336.205V146.077C334.367 145.697 332.515 145.338 330.664 145V218.888H295.973C276.875 218.888 258.559 211.3 245.055 197.793C231.551 184.286 223.964 165.968 223.964 146.866C222.106 147.268 220.261 147.697 218.416 148.155V218.888H190.16L185.774 158.303C165.365 166.131 145.99 176.426 128.08 188.958C127.77 189.169 127.46 189.387 127.158 189.599C125.602 190.69 124.067 191.803 122.539 192.93V435.318H205.813L204.341 414.931L196.244 302.994H359.306L351.209 414.931L349.738 435.318H432.089V186.409C430.864 185.578 429.632 184.761 428.393 183.958ZM218.416 284.508H194.906L190.562 224.437H218.416V284.508ZM330.664 284.508H291.178V283.317C291.178 282.745 291.065 282.179 290.846 281.65C290.627 281.122 290.306 280.642 289.901 280.237C289.496 279.833 289.015 279.513 288.487 279.295C287.958 279.076 287.391 278.964 286.819 278.965H269.653C269.082 278.965 268.516 279.077 267.988 279.296C267.46 279.515 266.98 279.835 266.576 280.24C266.172 280.644 265.851 281.124 265.633 281.652C265.414 282.18 265.302 282.746 265.302 283.317V284.508H223.964V224.437H330.664V284.508ZM336.205 284.508V224.437H364.996L360.651 284.508H336.205Z" fill="#3F3D56"/>
<path d="M0 450.84C6.1167 458.089 12.7326 464.901 19.7993 471.227L534.201 471.931C541.267 465.605 547.883 458.793 554 451.544L0 450.84Z" fill="#3F3D56"/>
<path d="M348.832 385.558V445.913C348.833 446.683 349.139 447.42 349.682 447.964C350.226 448.508 350.963 448.814 351.732 448.814H441.156C441.925 448.814 442.663 448.508 443.206 447.964C443.75 447.42 444.056 446.683 444.057 445.913V385.558C444.055 384.79 443.749 384.053 443.205 383.51C442.661 382.967 441.925 382.662 441.156 382.661H351.732C350.964 382.662 350.228 382.967 349.684 383.51C349.14 384.053 348.834 384.79 348.832 385.558Z" fill="#3F3D56"/>
<path d="M350.93 386.309V445.169C350.931 445.58 351.094 445.974 351.385 446.264C351.675 446.555 352.069 446.718 352.48 446.719H440.412C440.823 446.718 441.217 446.555 441.507 446.264C441.798 445.974 441.961 445.58 441.962 445.169V386.309C441.962 385.898 441.799 385.503 441.508 385.212C441.218 384.921 440.823 384.757 440.412 384.756H352.48C352.069 384.757 351.674 384.921 351.384 385.212C351.093 385.503 350.93 385.898 350.93 386.309Z" fill="#EBF9FA"/>
<path d="M346.962 457.684C347.126 457.89 347.334 458.055 347.571 458.169C347.808 458.282 348.068 458.34 348.33 458.339H444.082C444.344 458.339 444.603 458.28 444.839 458.167C445.075 458.054 445.284 457.89 445.449 457.687C445.614 457.484 445.731 457.246 445.793 456.991C445.854 456.737 445.858 456.472 445.805 456.215L444.318 449.154C444.257 448.866 444.124 448.598 443.932 448.374C443.741 448.151 443.496 447.979 443.221 447.874C443.022 447.796 442.81 447.756 442.596 447.756H349.811C349.597 447.756 349.385 447.796 349.186 447.874C348.911 447.979 348.666 448.151 348.474 448.374C348.283 448.598 348.15 448.866 348.089 449.154L346.602 456.215C346.549 456.472 346.554 456.736 346.616 456.99C346.679 457.244 346.797 457.481 346.962 457.684Z" fill="#2F2E41"/>
<path d="M439.311 450.797H441.572C441.762 450.797 441.916 450.643 441.916 450.453V449.371C441.916 449.181 441.762 449.027 441.572 449.027H439.311C439.121 449.027 438.967 449.181 438.967 449.371V450.453C438.967 450.643 439.121 450.797 439.311 450.797Z" fill="#3F3D56"/>
<path d="M433.412 450.797H435.674C435.864 450.797 436.018 450.643 436.018 450.453V449.371C436.018 449.181 435.864 449.027 435.674 449.027H433.412C433.222 449.027 433.069 449.181 433.069 449.371V450.453C433.069 450.643 433.222 450.797 433.412 450.797Z" fill="#3F3D56"/>
<path d="M427.514 450.797H429.776C429.966 450.797 430.119 450.643 430.119 450.453V449.371C430.119 449.181 429.966 449.027 429.776 449.027H427.514C427.324 449.027 427.17 449.181 427.17 449.371V450.453C427.17 450.643 427.324 450.797 427.514 450.797Z" fill="#3F3D56"/>
<path d="M421.616 450.797H423.877C424.067 450.797 424.221 450.643 424.221 450.453V449.371C424.221 449.181 424.067 449.027 423.877 449.027H421.616C421.426 449.027 421.272 449.181 421.272 449.371V450.453C421.272 450.643 421.426 450.797 421.616 450.797Z" fill="#3F3D56"/>
<path d="M415.718 450.797H417.979C418.169 450.797 418.323 450.643 418.323 450.453V449.371C418.323 449.181 418.169 449.027 417.979 449.027H415.718C415.528 449.027 415.374 449.181 415.374 449.371V450.453C415.374 450.643 415.528 450.797 415.718 450.797Z" fill="#3F3D56"/>
<path d="M409.819 450.797H412.081C412.271 450.797 412.425 450.643 412.425 450.453V449.371C412.425 449.181 412.271 449.027 412.081 449.027H409.819C409.63 449.027 409.476 449.181 409.476 449.371V450.453C409.476 450.643 409.63 450.797 409.819 450.797Z" fill="#3F3D56"/>
<path d="M403.921 450.797H406.183C406.373 450.797 406.527 450.643 406.527 450.453V449.371C406.527 449.181 406.373 449.027 406.183 449.027H403.921C403.731 449.027 403.578 449.181 403.578 449.371V450.453C403.578 450.643 403.731 450.797 403.921 450.797Z" fill="#3F3D56"/>
<path d="M398.023 450.797H400.285C400.474 450.797 400.628 450.643 400.628 450.453V449.371C400.628 449.181 400.474 449.027 400.285 449.027H398.023C397.833 449.027 397.679 449.181 397.679 449.371V450.453C397.679 450.643 397.833 450.797 398.023 450.797Z" fill="#3F3D56"/>
<path d="M392.125 450.797H394.386C394.576 450.797 394.73 450.643 394.73 450.453V449.371C394.73 449.181 394.576 449.027 394.386 449.027H392.125C391.935 449.027 391.781 449.181 391.781 449.371V450.453C391.781 450.643 391.935 450.797 392.125 450.797Z" fill="#3F3D56"/>
<path d="M386.226 450.797H388.488C388.678 450.797 388.832 450.643 388.832 450.453V449.371C388.832 449.181 388.678 449.027 388.488 449.027H386.226C386.037 449.027 385.883 449.181 385.883 449.371V450.453C385.883 450.643 386.037 450.797 386.226 450.797Z" fill="#3F3D56"/>
<path d="M380.328 450.797H382.59C382.78 450.797 382.934 450.643 382.934 450.453V449.371C382.934 449.181 382.78 449.027 382.59 449.027H380.328C380.138 449.027 379.984 449.181 379.984 449.371V450.453C379.984 450.643 380.138 450.797 380.328 450.797Z" fill="#3F3D56"/>
<path d="M374.43 450.797H376.692C376.881 450.797 377.035 450.643 377.035 450.453V449.371C377.035 449.181 376.881 449.027 376.692 449.027H374.43C374.24 449.027 374.086 449.181 374.086 449.371V450.453C374.086 450.643 374.24 450.797 374.43 450.797Z" fill="#3F3D56"/>
<path d="M368.532 450.797H370.793C370.983 450.797 371.137 450.643 371.137 450.453V449.371C371.137 449.181 370.983 449.027 370.793 449.027H368.532C368.342 449.027 368.188 449.181 368.188 449.371V450.453C368.188 450.643 368.342 450.797 368.532 450.797Z" fill="#3F3D56"/>
<path d="M362.633 450.797H364.895C365.085 450.797 365.239 450.643 365.239 450.453V449.371C365.239 449.181 365.085 449.027 364.895 449.027H362.633C362.444 449.027 362.29 449.181 362.29 449.371V450.453C362.29 450.643 362.444 450.797 362.633 450.797Z" fill="#3F3D56"/>
<path d="M356.735 450.797H358.997C359.187 450.797 359.341 450.643 359.341 450.453V449.371C359.341 449.181 359.187 449.027 358.997 449.027H356.735C356.545 449.027 356.392 449.181 356.392 449.371V450.453C356.392 450.643 356.545 450.797 356.735 450.797Z" fill="#3F3D56"/>
<path d="M350.837 450.797H353.099C353.289 450.797 353.442 450.643 353.442 450.453V449.371C353.442 449.181 353.289 449.027 353.099 449.027H350.837C350.647 449.027 350.493 449.181 350.493 449.371V450.453C350.493 450.643 350.647 450.797 350.837 450.797Z" fill="#3F3D56"/>
<path d="M439.38 453.747H441.642C441.832 453.747 441.986 453.593 441.986 453.403V452.321C441.986 452.131 441.832 451.977 441.642 451.977H439.38C439.19 451.977 439.036 452.131 439.036 452.321V453.403C439.036 453.593 439.19 453.747 439.38 453.747Z" fill="#3F3D56"/>
<path d="M433.482 453.747H435.744C435.934 453.747 436.087 453.593 436.087 453.403V452.321C436.087 452.131 435.934 451.977 435.744 451.977H433.482C433.292 451.977 433.138 452.131 433.138 452.321V453.403C433.138 453.593 433.292 453.747 433.482 453.747Z" fill="#3F3D56"/>
<path d="M427.584 453.747H429.845C430.035 453.747 430.189 453.593 430.189 453.403V452.321C430.189 452.131 430.035 451.977 429.845 451.977H427.584C427.394 451.977 427.24 452.131 427.24 452.321V453.403C427.24 453.593 427.394 453.747 427.584 453.747Z" fill="#3F3D56"/>
<path d="M421.685 453.747H423.947C424.137 453.747 424.291 453.593 424.291 453.403V452.321C424.291 452.131 424.137 451.977 423.947 451.977H421.685C421.496 451.977 421.342 452.131 421.342 452.321V453.403C421.342 453.593 421.496 453.747 421.685 453.747Z" fill="#3F3D56"/>
<path d="M415.787 453.747H418.049C418.239 453.747 418.393 453.593 418.393 453.403V452.321C418.393 452.131 418.239 451.977 418.049 451.977H415.787C415.598 451.977 415.444 452.131 415.444 452.321V453.403C415.444 453.593 415.598 453.747 415.787 453.747Z" fill="#3F3D56"/>
<path d="M409.889 453.747H412.151C412.341 453.747 412.494 453.593 412.494 453.403V452.321C412.494 452.131 412.341 451.977 412.151 451.977H409.889C409.699 451.977 409.545 452.131 409.545 452.321V453.403C409.545 453.593 409.699 453.747 409.889 453.747Z" fill="#3F3D56"/>
<path d="M403.991 453.747H406.252C406.442 453.747 406.596 453.593 406.596 453.403V452.321C406.596 452.131 406.442 451.977 406.252 451.977H403.991C403.801 451.977 403.647 452.131 403.647 452.321V453.403C403.647 453.593 403.801 453.747 403.991 453.747Z" fill="#3F3D56"/>
<path d="M398.093 453.747H400.354C400.544 453.747 400.698 453.593 400.698 453.403V452.321C400.698 452.131 400.544 451.977 400.354 451.977H398.093C397.903 451.977 397.749 452.131 397.749 452.321V453.403C397.749 453.593 397.903 453.747 398.093 453.747Z" fill="#3F3D56"/>
<path d="M392.194 453.747H394.456C394.646 453.747 394.8 453.593 394.8 453.403V452.321C394.8 452.131 394.646 451.977 394.456 451.977H392.194C392.004 451.977 391.851 452.131 391.851 452.321V453.403C391.851 453.593 392.004 453.747 392.194 453.747Z" fill="#3F3D56"/>
<path d="M386.296 453.747H388.558C388.748 453.747 388.902 453.593 388.902 453.403V452.321C388.902 452.131 388.748 451.977 388.558 451.977H386.296C386.106 451.977 385.953 452.131 385.953 452.321V453.403C385.953 453.593 386.106 453.747 386.296 453.747Z" fill="#3F3D56"/>
<path d="M380.398 453.747H382.66C382.849 453.747 383.003 453.593 383.003 453.403V452.321C383.003 452.131 382.849 451.977 382.66 451.977H380.398C380.208 451.977 380.054 452.131 380.054 452.321V453.403C380.054 453.593 380.208 453.747 380.398 453.747Z" fill="#3F3D56"/>
<path d="M374.5 453.747H376.761C376.951 453.747 377.105 453.593 377.105 453.403V452.321C377.105 452.131 376.951 451.977 376.761 451.977H374.5C374.31 451.977 374.156 452.131 374.156 452.321V453.403C374.156 453.593 374.31 453.747 374.5 453.747Z" fill="#3F3D56"/>
<path d="M368.601 453.747H370.863C371.053 453.747 371.207 453.593 371.207 453.403V452.321C371.207 452.131 371.053 451.977 370.863 451.977H368.601C368.412 451.977 368.258 452.131 368.258 452.321V453.403C368.258 453.593 368.412 453.747 368.601 453.747Z" fill="#3F3D56"/>
<path d="M362.703 453.747H364.965C365.155 453.747 365.309 453.593 365.309 453.403V452.321C365.309 452.131 365.155 451.977 364.965 451.977H362.703C362.513 451.977 362.359 452.131 362.359 452.321V453.403C362.359 453.593 362.513 453.747 362.703 453.747Z" fill="#3F3D56"/>
<path d="M356.805 453.747H359.067C359.257 453.747 359.41 453.593 359.41 453.403V452.321C359.41 452.131 359.257 451.977 359.067 451.977H356.805C356.615 451.977 356.461 452.131 356.461 452.321V453.403C356.461 453.593 356.615 453.747 356.805 453.747Z" fill="#3F3D56"/>
<path d="M350.907 453.747H353.168C353.358 453.747 353.512 453.593 353.512 453.403V452.321C353.512 452.131 353.358 451.977 353.168 451.977H350.907C350.717 451.977 350.563 452.131 350.563 452.321V453.403C350.563 453.593 350.717 453.747 350.907 453.747Z" fill="#3F3D56"/>
<path d="M390.425 457.286H413.33C413.52 457.286 413.674 457.133 413.674 456.943V455.861C413.674 455.671 413.52 455.517 413.33 455.517H390.425C390.235 455.517 390.081 455.671 390.081 455.861V456.943C390.081 457.133 390.235 457.286 390.425 457.286Z" fill="#3F3D56"/>
<path d="M366.157 397.633H364.155C363.548 397.633 363.056 398.125 363.056 398.732C363.056 399.339 363.548 399.831 364.155 399.831H366.157C366.764 399.831 367.256 399.339 367.256 398.732C367.256 398.125 366.764 397.633 366.157 397.633Z" fill="white"/>
<path d="M389.057 397.633H387.054C386.447 397.633 385.955 398.125 385.955 398.732C385.955 399.339 386.447 399.831 387.054 399.831H389.057C389.664 399.831 390.156 399.339 390.156 398.732C390.156 398.125 389.664 397.633 389.057 397.633Z" fill="white"/>
<path d="M395.545 397.633H393.543C392.936 397.633 392.443 398.125 392.443 398.732C392.443 399.339 392.936 399.831 393.543 399.831H395.545C396.152 399.831 396.644 399.339 396.644 398.732C396.644 398.125 396.152 397.633 395.545 397.633Z" fill="white"/>
<path d="M382.828 397.449H370.384C369.777 397.449 369.285 397.942 369.285 398.549C369.285 399.156 369.777 399.648 370.384 399.648H382.828C383.435 399.648 383.927 399.156 383.927 398.549C383.927 397.942 383.435 397.449 382.828 397.449Z" fill="white"/>
<path d="M413.361 397.449H400.916C400.309 397.449 399.817 397.942 399.817 398.549C399.817 399.156 400.309 399.648 400.916 399.648H413.361C413.968 399.648 414.46 399.156 414.46 398.549C414.46 397.942 413.968 397.449 413.361 397.449Z" fill="white"/>
<path d="M372.264 402.595H370.262C369.654 402.595 369.162 403.087 369.162 403.695C369.162 404.302 369.654 404.794 370.262 404.794H372.264C372.871 404.794 373.363 404.302 373.363 403.695C373.363 403.087 372.871 402.595 372.264 402.595Z" fill="white"/>
<path d="M395.163 402.595H393.161C392.554 402.595 392.062 403.087 392.062 403.695C392.062 404.302 392.554 404.794 393.161 404.794H395.163C395.77 404.794 396.262 404.302 396.262 403.695C396.262 403.087 395.77 402.595 395.163 402.595Z" fill="white"/>
<path d="M401.651 402.595H399.649C399.042 402.595 398.55 403.087 398.55 403.695C398.55 404.302 399.042 404.794 399.649 404.794H401.651C402.258 404.794 402.751 404.302 402.751 403.695C402.751 403.087 402.258 402.595 401.651 402.595Z" fill="white"/>
<path d="M388.935 402.412H376.49C375.883 402.412 375.391 402.904 375.391 403.511C375.391 404.118 375.883 404.611 376.49 404.611H388.935C389.542 404.611 390.034 404.118 390.034 403.511C390.034 402.904 389.542 402.412 388.935 402.412Z" fill="white"/>
<path d="M419.467 402.412H407.023C406.416 402.412 405.924 402.904 405.924 403.511C405.924 404.118 406.416 404.611 407.023 404.611H419.467C420.074 404.611 420.566 404.118 420.566 403.511C420.566 402.904 420.074 402.412 419.467 402.412Z" fill="white"/>
<path d="M378.37 407.558H376.368C375.761 407.558 375.269 408.05 375.269 408.657C375.269 409.264 375.761 409.756 376.368 409.756H378.37C378.977 409.756 379.469 409.264 379.469 408.657C379.469 408.05 378.977 407.558 378.37 407.558Z" fill="white"/>
<path d="M401.27 407.558H399.268C398.661 407.558 398.168 408.05 398.168 408.657C398.168 409.264 398.661 409.756 399.268 409.756H401.27C401.877 409.756 402.369 409.264 402.369 408.657C402.369 408.05 401.877 407.558 401.27 407.558Z" fill="white"/>
<path d="M407.758 407.558H405.756C405.149 407.558 404.656 408.05 404.656 408.657C404.656 409.264 405.149 409.756 405.756 409.756H407.758C408.365 409.756 408.857 409.264 408.857 408.657C408.857 408.05 408.365 407.558 407.758 407.558Z" fill="white"/>
<path d="M395.041 407.374H382.597C381.99 407.374 381.498 407.867 381.498 408.474C381.498 409.081 381.99 409.573 382.597 409.573H395.041C395.648 409.573 396.14 409.081 396.14 408.474C396.14 407.867 395.648 407.374 395.041 407.374Z" fill="white"/>
<path d="M425.574 407.374H413.129C412.522 407.374 412.03 407.867 412.03 408.474C412.03 409.081 412.522 409.573 413.129 409.573H425.574C426.181 409.573 426.673 409.081 426.673 408.474C426.673 407.867 426.181 407.374 425.574 407.374Z" fill="white"/>
<path d="M384.477 412.52H382.475C381.868 412.52 381.375 413.012 381.375 413.619C381.375 414.227 381.868 414.719 382.475 414.719H384.477C385.084 414.719 385.576 414.227 385.576 413.619C385.576 413.012 385.084 412.52 384.477 412.52Z" fill="white"/>
<path d="M407.376 412.52H405.374C404.767 412.52 404.275 413.012 404.275 413.619C404.275 414.227 404.767 414.719 405.374 414.719H407.376C407.983 414.719 408.475 414.227 408.475 413.619C408.475 413.012 407.983 412.52 407.376 412.52Z" fill="white"/>
<path d="M413.864 412.52H411.862C411.255 412.52 410.763 413.012 410.763 413.619C410.763 414.227 411.255 414.719 411.862 414.719H413.864C414.472 414.719 414.964 414.227 414.964 413.619C414.964 413.012 414.472 412.52 413.864 412.52Z" fill="white"/>
<path d="M401.148 412.337H388.703C388.096 412.337 387.604 412.829 387.604 413.436C387.604 414.043 388.096 414.536 388.703 414.536H401.148C401.755 414.536 402.247 414.043 402.247 413.436C402.247 412.829 401.755 412.337 401.148 412.337Z" fill="white"/>
<path d="M389.057 432.253H387.054C386.447 432.253 385.955 432.745 385.955 433.352C385.955 433.959 386.447 434.452 387.054 434.452H389.057C389.664 434.452 390.156 433.959 390.156 433.352C390.156 432.745 389.664 432.253 389.057 432.253Z" fill="white"/>
<path d="M395.545 432.253H393.543C392.936 432.253 392.443 432.745 392.443 433.352C392.443 433.959 392.936 434.452 393.543 434.452H395.545C396.152 434.452 396.644 433.959 396.644 433.352C396.644 432.745 396.152 432.253 395.545 432.253Z" fill="white"/>
<path d="M413.361 432.436H400.916C400.309 432.436 399.817 432.928 399.817 433.536C399.817 434.143 400.309 434.635 400.916 434.635H413.361C413.968 434.635 414.46 434.143 414.46 433.536C414.46 432.928 413.968 432.436 413.361 432.436Z" fill="white"/>
<path d="M366.157 432.253H364.155C363.548 432.253 363.056 432.745 363.056 433.352C363.056 433.959 363.548 434.452 364.155 434.452H366.157C366.764 434.452 367.256 433.959 367.256 433.352C367.256 432.745 366.764 432.253 366.157 432.253Z" fill="white"/>
<path d="M382.828 432.436H370.384C369.777 432.436 369.285 432.928 369.285 433.536C369.285 434.143 369.777 434.635 370.384 434.635H382.828C383.435 434.635 383.927 434.143 383.927 433.536C383.927 432.928 383.435 432.436 382.828 432.436Z" fill="white"/>
<path d="M372.264 427.29H370.262C369.654 427.29 369.162 427.783 369.162 428.39C369.162 428.997 369.654 429.489 370.262 429.489H372.264C372.871 429.489 373.363 428.997 373.363 428.39C373.363 427.783 372.871 427.29 372.264 427.29Z" fill="white"/>
<path d="M395.163 427.29H393.161C392.554 427.29 392.062 427.783 392.062 428.39C392.062 428.997 392.554 429.489 393.161 429.489H395.163C395.77 429.489 396.262 428.997 396.262 428.39C396.262 427.783 395.77 427.29 395.163 427.29Z" fill="white"/>
<path d="M401.651 427.29H399.649C399.042 427.29 398.55 427.783 398.55 428.39C398.55 428.997 399.042 429.489 399.649 429.489H401.651C402.258 429.489 402.751 428.997 402.751 428.39C402.751 427.783 402.258 427.29 401.651 427.29Z" fill="white"/>
<path d="M388.935 427.474H376.49C375.883 427.474 375.391 427.966 375.391 428.573C375.391 429.18 375.883 429.672 376.49 429.672H388.935C389.542 429.672 390.034 429.18 390.034 428.573C390.034 427.966 389.542 427.474 388.935 427.474Z" fill="white"/>
<path d="M378.37 422.328H376.368C375.761 422.328 375.269 422.82 375.269 423.427C375.269 424.035 375.761 424.527 376.368 424.527H378.37C378.977 424.527 379.469 424.035 379.469 423.427C379.469 422.82 378.977 422.328 378.37 422.328Z" fill="white"/>
<path d="M401.27 422.328H399.268C398.661 422.328 398.168 422.82 398.168 423.427C398.168 424.035 398.661 424.527 399.268 424.527H401.27C401.877 424.527 402.369 424.035 402.369 423.427C402.369 422.82 401.877 422.328 401.27 422.328Z" fill="white"/>
<path d="M407.758 422.328H405.756C405.149 422.328 404.656 422.82 404.656 423.427C404.656 424.035 405.149 424.527 405.756 424.527H407.758C408.365 424.527 408.857 424.035 408.857 423.427C408.857 422.82 408.365 422.328 407.758 422.328Z" fill="white"/>
<path d="M395.041 422.511H382.597C381.99 422.511 381.498 423.003 381.498 423.611C381.498 424.218 381.99 424.71 382.597 424.71H395.041C395.648 424.71 396.14 424.218 396.14 423.611C396.14 423.003 395.648 422.511 395.041 422.511Z" fill="white"/>
<path d="M384.477 417.365H382.475C381.868 417.365 381.375 417.858 381.375 418.465C381.375 419.072 381.868 419.564 382.475 419.564H384.477C385.084 419.564 385.576 419.072 385.576 418.465C385.576 417.858 385.084 417.365 384.477 417.365Z" fill="white"/>
<path d="M407.376 417.365H405.374C404.767 417.365 404.275 417.858 404.275 418.465C404.275 419.072 404.767 419.564 405.374 419.564H407.376C407.983 419.564 408.475 419.072 408.475 418.465C408.475 417.858 407.983 417.365 407.376 417.365Z" fill="white"/>
<path d="M413.864 417.365H411.862C411.255 417.365 410.763 417.858 410.763 418.465C410.763 419.072 411.255 419.564 411.862 419.564H413.864C414.472 419.564 414.964 419.072 414.964 418.465C414.964 417.858 414.472 417.365 413.864 417.365Z" fill="white"/>
<path d="M401.148 417.549H388.703C388.096 417.549 387.604 418.041 387.604 418.648C387.604 419.255 388.096 419.748 388.703 419.748H401.148C401.755 419.748 402.247 419.255 402.247 418.648C402.247 418.041 401.755 417.549 401.148 417.549Z" fill="white"/>
<path d="M355.512 490.411L346.113 475.551L375.616 452.027L387.794 438.534C389.376 436.78 391.39 435.473 393.636 434.743C395.881 434.012 398.279 433.884 400.589 434.371C402.9 434.858 405.042 435.942 406.802 437.517C408.562 439.091 409.878 441.1 410.619 443.342C411.717 446.665 411.481 450.285 409.961 453.437C408.441 456.589 405.756 459.027 402.473 460.237L383.216 467.332L355.512 490.411Z" fill="#FFB6B6"/>
<path d="M134.969 382.663V454.889H185.558V382.663C185.559 382.144 185.394 381.638 185.086 381.22C184.778 380.801 184.344 380.493 183.848 380.339C183.614 380.262 183.369 380.224 183.122 380.227H137.412C137.092 380.226 136.774 380.289 136.478 380.411C136.182 380.533 135.912 380.712 135.686 380.939C135.459 381.165 135.279 381.434 135.156 381.73C135.033 382.026 134.969 382.343 134.969 382.663ZM154.712 407.48C154.725 406.057 155.3 404.696 156.311 403.693C157.323 402.691 158.689 402.129 160.112 402.129C161.536 402.129 162.902 402.691 163.913 403.693C164.925 404.696 165.5 406.057 165.513 407.48V415.861C165.505 417.289 164.933 418.655 163.921 419.662C162.909 420.669 161.54 421.235 160.112 421.235C158.685 421.235 157.315 420.669 156.303 419.662C155.291 418.655 154.719 417.289 154.712 415.861V407.48Z" fill="#2F2E41"/>
<path d="M134.814 452.579V459.544C134.815 459.905 134.959 460.251 135.213 460.506C135.467 460.762 135.812 460.907 136.173 460.91H184.355C184.716 460.909 185.061 460.764 185.316 460.508C185.571 460.252 185.714 459.905 185.713 459.544V452.579H134.814Z" fill="#3F3D56"/>
<path d="M55.3845 273.846V405.72C55.3859 407.4 56.0539 409.012 57.242 410.2C58.4301 411.388 60.0412 412.057 61.7214 412.058H257.109C258.789 412.057 260.4 411.388 261.589 410.2C262.777 409.012 263.445 407.4 263.446 405.72V273.846C263.442 272.167 262.773 270.558 261.585 269.371C260.397 268.185 258.788 267.517 257.109 267.515H61.7214C60.0426 267.517 58.4331 268.185 57.2454 269.371C56.0577 270.558 55.3885 272.167 55.3845 273.846Z" fill="#3F3D56"/>
<path d="M59.9681 275.487V404.093C59.9697 404.991 60.327 405.852 60.9618 406.487C61.5966 407.122 62.4571 407.479 63.3549 407.48H255.483C256.38 407.479 257.241 407.122 257.876 406.487C258.51 405.852 258.868 404.991 258.869 404.093V275.487C258.869 274.588 258.513 273.726 257.878 273.089C257.243 272.453 256.381 272.095 255.483 272.093H63.3549C62.456 272.095 61.5947 272.453 60.9598 273.089C60.3249 273.726 59.9682 274.588 59.9681 275.487Z" fill="white"/>
<path d="M95.6238 460.438C95.8193 460.684 96.0679 460.881 96.3508 461.017C96.6337 461.152 96.9437 461.222 97.2573 461.22H211.561C211.874 461.22 212.182 461.15 212.464 461.015C212.746 460.88 212.995 460.684 213.192 460.442C213.389 460.199 213.529 459.915 213.603 459.611C213.676 459.307 213.681 458.991 213.617 458.685L211.843 450.255C211.769 449.912 211.611 449.592 211.382 449.325C211.153 449.058 210.861 448.852 210.533 448.727C210.295 448.634 210.042 448.586 209.787 448.586H99.0246C98.7692 448.586 98.516 448.634 98.2783 448.727C97.9498 448.852 97.658 449.058 97.4292 449.325C97.2005 449.592 97.0421 449.912 96.9686 450.255L95.1943 458.685C95.1312 458.991 95.1369 459.307 95.2112 459.61C95.2855 459.913 95.4265 460.196 95.6238 460.438Z" fill="#2F2E41"/>
<path d="M249.248 289.809H69.4743C69.2875 289.805 69.1097 289.727 68.979 289.594C68.8483 289.46 68.7751 289.281 68.7751 289.094C68.7751 288.907 68.8483 288.727 68.979 288.594C69.1097 288.46 69.2875 288.383 69.4743 288.379H249.248C249.434 288.383 249.612 288.46 249.743 288.594C249.874 288.727 249.947 288.907 249.947 289.094C249.947 289.281 249.874 289.46 249.743 289.594C249.612 289.727 249.434 289.805 249.248 289.809Z" fill="#3F3D56"/>
<path d="M81.7118 284.728C84.0257 284.728 85.9015 282.81 85.9015 280.444C85.9015 278.078 84.0257 276.16 81.7118 276.16C79.3979 276.16 77.5221 278.078 77.5221 280.444C77.5221 282.81 79.3979 284.728 81.7118 284.728Z" fill="#3F3D56"/>
<path d="M96.1852 284.728C98.4991 284.728 100.375 282.81 100.375 280.444C100.375 278.078 98.4991 276.16 96.1852 276.16C93.8713 276.16 91.9955 278.078 91.9955 280.444C91.9955 282.81 93.8713 284.728 96.1852 284.728Z" fill="#3F3D56"/>
<path d="M110.659 284.728C112.973 284.728 114.848 282.81 114.848 280.444C114.848 278.078 112.973 276.16 110.659 276.16C108.345 276.16 106.469 278.078 106.469 280.444C106.469 282.81 108.345 284.728 110.659 284.728Z" fill="#3F3D56"/>
<path d="M240.532 277.219H230.252C230.049 277.224 229.856 277.308 229.714 277.454C229.572 277.599 229.492 277.794 229.492 277.998C229.492 278.201 229.572 278.396 229.714 278.542C229.856 278.687 230.049 278.771 230.252 278.776H240.532C240.736 278.773 240.932 278.69 241.075 278.544C241.219 278.398 241.299 278.202 241.299 277.998C241.299 277.793 241.219 277.597 241.075 277.451C240.932 277.306 240.736 277.222 240.532 277.219Z" fill="#3F3D56"/>
<path d="M240.532 280.142H230.252C230.049 280.146 229.855 280.23 229.713 280.376C229.571 280.521 229.491 280.717 229.491 280.92C229.491 281.124 229.571 281.319 229.713 281.464C229.855 281.61 230.049 281.694 230.252 281.698H240.532C240.737 281.696 240.932 281.613 241.076 281.467C241.22 281.321 241.301 281.125 241.301 280.92C241.301 280.715 241.22 280.519 241.076 280.373C240.932 280.228 240.737 280.144 240.532 280.142Z" fill="#3F3D56"/>
<path d="M240.532 283.064H230.252C230.049 283.069 229.856 283.153 229.714 283.299C229.572 283.444 229.492 283.639 229.492 283.843C229.492 284.046 229.572 284.241 229.714 284.387C229.856 284.532 230.049 284.616 230.252 284.621H240.532C240.736 284.618 240.932 284.535 241.075 284.389C241.219 284.243 241.299 284.047 241.299 283.843C241.299 283.638 241.219 283.442 241.075 283.296C240.932 283.151 240.736 283.067 240.532 283.064Z" fill="#3F3D56"/>
<path d="M488.361 455.636C488.671 456.539 489.26 457.321 490.042 457.869C490.824 458.417 491.76 458.703 492.714 458.686L511.367 458.206C512.329 458.187 513.259 457.858 514.018 457.266C514.777 456.675 515.325 455.854 515.578 454.926L518.218 426.696C519.155 427.12 520.174 427.33 521.202 427.309C522.095 427.286 522.975 427.088 523.791 426.726C524.608 426.363 525.345 425.843 525.961 425.196C526.576 424.549 527.058 423.786 527.379 422.952C527.7 422.119 527.854 421.23 527.832 420.337C527.809 419.443 527.611 418.563 527.249 417.747C526.886 416.93 526.366 416.193 525.719 415.577C525.072 414.961 524.31 414.479 523.476 414.158C522.642 413.837 521.754 413.683 520.861 413.706C520.45 413.704 520.04 413.747 519.638 413.833C519.201 413.36 518.67 412.984 518.079 412.729C517.488 412.474 516.85 412.345 516.206 412.352L487.514 413.093C487.276 413.102 487.039 413.131 486.806 413.181C486.177 413.298 485.58 413.549 485.056 413.916C484.532 414.284 484.092 414.759 483.767 415.31C483.442 415.862 483.239 416.477 483.171 417.113C483.103 417.75 483.173 418.393 483.375 419.001L488.361 455.636ZM518.759 424.779L520.638 418.052C520.851 417.274 520.856 416.455 520.652 415.675C520.743 415.675 520.823 415.632 520.915 415.631C522.203 415.605 523.448 416.09 524.379 416.981C525.31 417.871 525.849 419.095 525.88 420.383C525.91 421.671 525.428 422.918 524.54 423.852C523.652 424.785 522.43 425.328 521.142 425.362C520.31 425.388 519.486 425.186 518.759 424.779Z" fill="#2F2E41"/>
<path d="M486.806 413.181C487.417 416.677 494.29 419.134 502.554 418.707C510.153 418.357 516.366 415.688 517.505 412.525C517.084 412.4 516.645 412.342 516.206 412.352L487.514 413.093C487.276 413.102 487.039 413.131 486.806 413.181Z" fill="#3F3D56"/>
<path d="M504.068 440.123C504.106 440.113 504.142 440.098 504.175 440.076L508.225 437.424C508.274 437.392 508.315 437.349 508.342 437.297C508.37 437.246 508.385 437.188 508.385 437.13C508.385 437.071 508.37 437.014 508.343 436.963C508.315 436.911 508.275 436.867 508.226 436.835L504.015 434.077C503.977 434.052 503.933 434.034 503.888 434.025C503.842 434.016 503.796 434.017 503.75 434.026C503.705 434.035 503.662 434.054 503.623 434.08C503.585 434.106 503.552 434.139 503.527 434.178C503.501 434.217 503.484 434.26 503.475 434.305C503.467 434.351 503.467 434.398 503.477 434.443C503.486 434.489 503.505 434.532 503.531 434.57C503.557 434.608 503.591 434.641 503.629 434.666L507.39 437.129L503.789 439.487C503.72 439.533 503.668 439.602 503.644 439.681C503.621 439.761 503.626 439.847 503.66 439.923C503.693 440 503.753 440.061 503.827 440.098C503.902 440.135 503.988 440.143 504.068 440.123Z" fill="#EBF9FA"/>
<path d="M497.67 440.418C497.738 440.401 497.8 440.364 497.846 440.312C497.893 440.259 497.923 440.194 497.933 440.125C497.942 440.055 497.931 439.984 497.9 439.921C497.869 439.859 497.82 439.806 497.759 439.771L494.025 437.63L497.634 434.949C497.671 434.922 497.703 434.887 497.726 434.847C497.75 434.808 497.766 434.764 497.772 434.718C497.779 434.672 497.777 434.626 497.766 434.581C497.754 434.536 497.734 434.494 497.707 434.457C497.679 434.42 497.645 434.388 497.605 434.365C497.565 434.341 497.521 434.325 497.476 434.319C497.43 434.312 497.383 434.314 497.339 434.325C497.294 434.337 497.252 434.357 497.215 434.384L493.174 437.386C493.127 437.421 493.09 437.467 493.065 437.52C493.04 437.573 493.029 437.631 493.032 437.689C493.036 437.748 493.054 437.804 493.085 437.854C493.115 437.904 493.158 437.945 493.209 437.974L497.409 440.382C497.488 440.428 497.582 440.441 497.67 440.418Z" fill="#EBF9FA"/>
<path d="M503.665 442.447C503.7 442.438 503.732 442.425 503.762 442.406C503.801 442.382 503.836 442.351 503.863 442.313C503.891 442.276 503.91 442.234 503.921 442.189C503.932 442.144 503.934 442.097 503.927 442.051C503.92 442.006 503.904 441.962 503.88 441.922L498.138 432.48C498.089 432.4 498.011 432.343 497.92 432.321C497.829 432.299 497.734 432.314 497.654 432.363C497.574 432.411 497.517 432.489 497.495 432.58C497.473 432.671 497.488 432.767 497.536 432.846L503.278 442.289C503.317 442.353 503.376 442.403 503.446 442.432C503.516 442.46 503.593 442.465 503.665 442.447Z" fill="#EBF9FA"/>
<path d="M180.841 328.682H149.726C148.457 328.682 147.428 329.711 147.428 330.98V334.021C147.428 335.29 148.457 336.32 149.726 336.32H180.841C182.11 336.32 183.139 335.29 183.139 334.021V330.98C183.139 329.711 182.11 328.682 180.841 328.682Z" fill="#EBF9FA"/>
<path d="M198.977 343.958H131.589C130.32 343.958 129.291 344.987 129.291 346.256V349.297C129.291 350.566 130.32 351.595 131.589 351.595H198.977C200.247 351.595 201.276 350.566 201.276 349.297V346.256C201.276 344.987 200.247 343.958 198.977 343.958Z" fill="#E6E6E6"/>
<path d="M198.977 359.233H131.589C130.32 359.233 129.291 360.262 129.291 361.532V364.572C129.291 365.842 130.32 366.871 131.589 366.871H198.977C200.247 366.871 201.276 365.842 201.276 364.572V361.532C201.276 360.262 200.247 359.233 198.977 359.233Z" fill="#E6E6E6"/>
<path d="M204.69 410.385L204.842 410.867L204.85 410.884L209.445 424.854L214.73 440.953L224.674 471.208L224.77 475.908V475.924L225.509 513.73L223.461 518.855L225.766 527.258C225.766 527.258 224.706 514.556 219.019 521.851C215.798 525.996 212.031 530.238 208.939 534.214C213.445 536.038 218.023 537.688 222.674 539.163C223.678 539.484 224.69 539.79 225.702 540.095C225.919 540.159 226.136 540.224 226.353 540.288C241.769 544.848 257.706 547.41 273.774 547.912C274.61 547.936 275.429 547.952 276.224 547.968C276.505 547.976 276.778 547.984 277.051 547.984C277.951 547.992 278.843 548 279.742 548C281.557 548 283.365 547.973 285.164 547.92C298.481 547.544 311.72 545.753 324.658 542.577C324.569 537.235 324.329 530.993 323.983 524.325C323.822 521.055 320.216 517.513 319.999 514.09C319.847 511.519 323.084 509.101 322.915 506.49C321.823 490.415 320.457 496.586 319.445 485.202C319.341 484.086 319.244 483.017 319.156 481.997C318.505 474.686 318.055 470.115 318.055 470.115L322.377 442.873L329.164 400.103L328.642 399.243L328.055 398.954L292.256 381.232L290.312 376.251C289.746 374.816 288.763 373.583 287.491 372.711C286.218 371.839 284.714 371.368 283.172 371.358L259.589 371.262C258.366 371.256 257.158 371.543 256.067 372.097C254.976 372.652 254.033 373.459 253.316 374.451L246.931 383.296L204.69 410.385Z" fill="#3F3D56"/>
<path d="M230.112 464.476L224.77 475.908L221.124 483.716L214.851 516.566L211.71 519.9L209.019 508.097L180.857 514.351C179.933 509.218 180.609 514.525 180.039 508.894C180.2 508.733 180.368 508.572 180.537 508.411C180.987 507.994 181.364 507.6 181.356 507.223C181.035 487.797 181.999 454.739 190.047 434.711C191.308 431.441 192.97 428.341 194.995 425.481C195.156 425.264 195.308 425.047 195.461 424.83C199.172 419.632 201.517 414.515 204.842 410.876V410.868C204.863 410.851 204.882 410.832 204.899 410.811C204.911 410.805 204.922 410.797 204.931 410.787L227.774 398.672L228.754 426.212L229.453 446.006L230.112 464.476Z" fill="#3F3D56"/>
<path d="M312.481 467.723L319.153 482.001L321.481 486.973L327.753 519.82L330.883 523.146L333.58 511.346L334.847 511.086L357.701 506.352L364.362 527.511C365.864 525.009 366.455 522.066 366.037 519.178C365.618 516.29 364.216 513.635 362.066 511.662C361.611 511.251 361.232 510.85 361.243 510.471C361.622 487.623 360.225 445.905 347.606 428.734C343.599 423.285 341.194 417.857 337.696 414.066C337.685 414.055 337.685 414.044 337.674 414.044L329.161 400.102L328.641 399.246L328.056 398.953L312.481 467.723Z" fill="#3F3D56"/>
<path d="M272.062 364.549C289.389 364.549 303.435 350.5 303.435 333.17C303.435 315.84 289.389 301.791 272.062 301.791C254.735 301.791 240.688 315.84 240.688 333.17C240.688 350.5 254.735 364.549 272.062 364.549Z" fill="#FFB6B6"/>
<path d="M314.467 311.252C314.224 310.992 313.93 310.784 313.605 310.64C313.28 310.496 312.929 310.419 312.573 310.414L313.044 309.104C313.198 308.691 313.24 308.245 313.165 307.811C313.09 307.377 312.901 306.971 312.617 306.635C312.333 306.298 311.965 306.042 311.55 305.895C311.135 305.747 310.689 305.712 310.256 305.794L308.538 306.125L308.7 304.977C308.762 304.55 308.712 304.113 308.554 303.711C308.397 303.309 308.137 302.955 307.801 302.683C307.465 302.412 307.064 302.233 306.638 302.163C306.212 302.094 305.775 302.136 305.37 302.287C305.002 302.432 304.605 302.493 304.211 302.465C303.816 302.437 303.433 302.321 303.088 302.125C302.743 301.936 302.443 301.673 302.21 301.355C301.976 301.038 301.815 300.673 301.737 300.287L301.138 297.4L301.075 297.245C298.16 292.386 292.555 288.85 285.697 287.555C279.593 286.393 273.333 286.984 267.299 287.541C264.905 287.766 262.201 288.019 259.948 289.4C258.033 290.583 256.414 292.949 256.745 295.336C250.795 293.512 244.416 297.153 241.254 301.745C237.509 307.21 236.896 314.055 236.797 319.407C236.53 332.069 239.142 342.428 244.543 350.203C244.937 350.766 245.035 351.942 245.817 352.337L245.655 352.076C246.528 352.513 247.415 353.217 247.084 353.97C246.134 356.139 252.45 360.935 256.9 362.52C265.018 365.414 275.812 365.168 283.402 364.125L283.669 362.33C286.408 361.956 288.338 361.245 288.88 360.132C289.837 359.315 290.654 358.583 291.365 357.907L291.372 357.9C291.386 357.886 291.414 357.865 291.429 357.851C294.858 354.562 295.653 352.689 296.012 349.837C296.357 347.041 295.745 344.203 295.118 341.646C308.313 343.689 289.922 327.59 302.215 324.477C302.356 324.434 302.5 324.399 302.645 324.372C303.004 324.287 303.363 324.203 303.708 324.104C305.371 323.653 306.964 322.972 308.44 322.083C311.876 319.991 313.009 317.217 314.784 314.09C315.04 313.645 315.147 313.129 315.09 312.619C315.033 312.109 314.815 311.63 314.467 311.252Z" fill="#2F2E41"/>
<path d="M383.025 469.957C383.018 471.189 383.004 472.914 382.948 475.048C382.941 475.344 382.933 475.647 382.926 475.957C382.835 479.879 382.743 483.168 382.596 486.823C382.588 487.077 382.581 487.323 382.567 487.577C382.37 492.675 382.06 498.612 381.525 508.013C380.533 525.379 378.8 510.401 377.061 516.492C376.977 516.795 376.885 517.154 376.801 517.577C376.537 519.11 376.093 520.606 375.477 522.034C374.555 522.584 373.604 523.112 372.668 523.64C369.999 525.126 367.288 526.556 364.556 527.915C363.022 528.675 361.48 529.422 359.931 530.14C359.684 530.253 359.445 530.365 359.205 530.471C351.273 534.141 343.098 537.261 334.738 539.809C333.104 540.302 331.478 540.781 329.83 541.225C328.112 541.703 326.394 542.154 324.655 542.577C311.717 545.754 298.479 547.545 285.162 547.922C283.367 547.978 281.557 547.999 279.741 547.999C278.839 547.999 277.952 547.992 277.051 547.985C276.776 547.985 276.502 547.978 276.227 547.971C275.432 547.95 274.608 547.936 273.777 547.915C257.709 547.414 241.771 544.85 226.356 540.288L225.701 540.098C224.687 539.788 223.68 539.485 222.673 539.161C218.026 537.689 213.447 536.042 208.936 534.218C205.493 532.83 202.09 531.342 198.727 529.753C198.696 529.744 198.667 529.73 198.642 529.71C197.938 529.387 197.227 529.049 196.523 528.703C196.431 528.654 196.333 528.605 196.234 528.556C193.608 527.274 191.01 525.931 188.44 524.527C186.278 519.563 183.237 518.612 181.35 514.246C180.8 512.948 180.404 511.592 180.167 510.203C180.167 510.189 180.16 510.175 180.16 510.154C180.357 512.774 179.322 505.506 180.153 510.126C180.146 510.041 180.139 509.95 180.132 509.844C180.11 509.591 180.082 509.281 180.04 508.894C177.625 485.309 177.78 458.337 176.731 436.112C176.66 434.675 176.588 433.299 176.513 431.985C176.491 431.548 176.463 431.119 176.435 430.696C176.484 430.569 176.541 430.435 176.604 430.309C176.618 430.272 176.634 430.237 176.653 430.203C176.674 430.159 176.698 430.117 176.724 430.076C176.738 430.055 176.759 430.027 176.773 430.006C176.783 429.982 176.795 429.958 176.808 429.935C176.872 429.837 176.942 429.731 177.019 429.633C177.055 429.59 177.083 429.555 177.118 429.52C177.142 429.484 177.171 429.451 177.203 429.421C177.224 429.388 177.25 429.357 177.28 429.33C177.308 429.302 177.336 429.266 177.372 429.231C177.387 429.209 177.406 429.19 177.428 429.175C177.484 429.111 177.545 429.052 177.611 428.999C177.862 428.768 178.13 428.556 178.414 428.365C178.512 428.302 178.618 428.238 178.716 428.168C179.426 427.743 180.173 427.385 180.948 427.097C181.216 426.999 181.483 426.907 181.772 426.809C181.878 426.781 181.976 426.745 182.082 426.71C182.237 426.661 182.392 426.612 182.554 426.576C183.356 426.337 184.222 426.133 185.159 425.943C185.272 425.921 185.391 425.9 185.511 425.872C185.68 425.837 185.856 425.809 186.032 425.781C186.271 425.738 186.518 425.696 186.764 425.654C188.855 425.323 191.228 425.076 193.847 424.914C194.094 424.9 194.34 424.886 194.587 424.872C194.875 424.858 195.164 424.844 195.46 424.83C195.706 424.816 195.96 424.809 196.213 424.802C196.46 424.788 196.713 424.781 196.974 424.774C197.685 424.752 198.417 424.731 199.163 424.717C201.29 424.675 203.529 424.689 205.881 424.738C206.972 424.766 208.084 424.795 209.225 424.844C209.302 424.844 209.373 424.851 209.443 424.851C210.436 424.886 211.436 424.928 212.464 424.985C213.182 425.02 213.907 425.055 214.632 425.097C215.315 425.14 216.005 425.182 216.703 425.231C217.245 425.259 217.787 425.302 218.336 425.337C218.801 425.372 219.265 425.407 219.73 425.435L220.364 425.478C220.709 425.506 221.054 425.527 221.406 425.562C222.18 425.626 222.955 425.689 223.744 425.752C224.525 425.823 225.321 425.893 226.116 425.964C226.912 426.034 227.715 426.112 228.517 426.189C228.602 426.196 228.679 426.203 228.757 426.21C229.489 426.288 230.221 426.358 230.961 426.435C231.13 426.45 231.306 426.464 231.475 426.485C232.179 426.556 232.898 426.639 233.609 426.714C233.828 426.738 234.045 426.761 234.264 426.784C234.821 426.845 235.37 426.898 235.931 426.964C236.671 427.048 237.424 427.126 238.156 427.224C238.727 427.288 239.297 427.351 239.867 427.421C240.762 427.527 241.67 427.64 242.578 427.759C242.923 427.802 243.268 427.844 243.613 427.893C246.204 428.217 248.823 428.576 251.485 428.95C255.519 429.52 259.617 430.14 263.743 430.809C267.876 431.478 272.033 432.184 276.213 432.928C277.269 433.119 278.325 433.309 279.388 433.506C279.867 433.597 280.346 433.689 280.825 433.781C281.642 433.928 282.458 434.083 283.275 434.238C284.092 434.393 284.909 434.548 285.725 434.71C286.697 434.9 287.676 435.09 288.647 435.281C295.048 436.548 301.413 437.9 307.623 439.316C308.644 439.548 309.665 439.788 310.679 440.02C312.707 440.492 314.716 440.971 316.706 441.457C317.255 441.583 317.797 441.717 318.339 441.851C319.691 442.189 321.043 442.527 322.374 442.872L322.606 442.935C323.585 443.175 324.542 443.421 325.5 443.675C327.76 444.267 329.983 444.865 332.168 445.471C333.618 445.872 335.052 446.278 336.47 446.689C338.589 447.302 340.666 447.921 342.687 448.548C343.187 448.703 343.687 448.858 344.18 449.006C345.658 449.464 347.116 449.928 348.531 450.393C349.658 450.759 350.756 451.133 351.84 451.506C352.925 451.879 353.988 452.252 355.03 452.626C355.699 452.865 356.361 453.119 357.023 453.358C357.973 453.71 358.91 454.062 359.825 454.414C360.107 454.52 360.381 454.633 360.656 454.738C360.832 454.816 361.001 454.879 361.17 454.95C361.501 455.083 361.839 455.21 362.162 455.344C362.493 455.471 362.817 455.605 363.141 455.745C363.458 455.872 363.782 456.006 364.092 456.14C364.409 456.267 364.718 456.4 365.028 456.541C365.289 456.647 365.542 456.76 365.789 456.872C366.288 457.09 366.788 457.309 367.274 457.534C367.514 457.647 367.753 457.752 367.992 457.865L368.542 458.119C368.619 458.161 368.697 458.196 368.774 458.231C368.95 458.316 369.133 458.407 369.309 458.492C369.717 458.682 370.119 458.886 370.513 459.076C371.041 459.344 371.555 459.612 372.048 459.872C372.548 460.14 373.034 460.407 373.498 460.668C373.576 460.71 373.646 460.752 373.724 460.795C373.829 460.851 373.935 460.914 374.041 460.971C374.4 461.175 374.745 461.386 375.09 461.59C375.766 462.006 376.406 462.414 377.005 462.823C377.139 462.914 377.265 463.006 377.399 463.09C377.843 463.407 378.265 463.717 378.66 464.034C378.66 464.041 378.66 464.041 378.667 464.041C378.8 464.14 378.927 464.245 379.054 464.344C379.159 464.443 379.272 464.527 379.378 464.626C379.744 464.943 380.082 465.245 380.392 465.555C380.495 465.651 380.594 465.752 380.687 465.858C380.728 465.892 380.766 465.93 380.8 465.971C380.941 466.112 381.068 466.252 381.187 466.393C381.206 466.413 381.222 466.434 381.237 466.457C381.406 466.654 381.56 466.851 381.708 467.048C381.779 467.147 381.856 467.245 381.92 467.344C382.004 467.464 382.088 467.591 382.159 467.71C382.222 467.809 382.279 467.914 382.335 468.013C382.484 468.267 382.612 468.533 382.715 468.809C382.794 468.996 382.858 469.189 382.905 469.386C382.959 469.573 382.999 469.764 383.025 469.957Z" fill="#2F2E41"/>
<path opacity="0.2" d="M383.025 469.957C383.018 471.189 383.004 472.915 382.948 475.048C382.941 475.344 382.926 475.647 382.919 475.957C382.849 478.95 382.743 482.647 382.596 486.823C382.588 487.077 382.581 487.323 382.567 487.577C382.37 492.675 382.06 498.612 381.525 508.013C380.533 525.38 378.8 510.401 377.061 516.492C372.231 513.52 366.936 510.408 361.275 507.21C360.254 506.633 359.224 506.053 358.184 505.471C346.862 499.154 334.217 492.534 321.015 485.978C320.494 485.717 319.966 485.457 319.445 485.203C289.204 470.253 256.195 455.71 229.454 446.006C224.293 444.133 219.364 442.443 214.731 440.957C204.972 437.837 196.537 435.654 190.045 434.71C183.286 433.724 178.618 434.076 176.731 436.112C176.66 434.675 176.588 433.299 176.512 431.985C176.484 431.548 176.456 431.119 176.428 430.696C176.471 430.58 176.528 430.469 176.583 430.358C176.59 430.342 176.596 430.325 176.604 430.309C176.617 430.272 176.634 430.237 176.653 430.203C176.674 430.159 176.698 430.117 176.724 430.076C176.747 430.026 176.775 429.979 176.808 429.935C176.872 429.837 176.942 429.731 177.019 429.633C177.076 429.559 177.138 429.488 177.202 429.421C177.224 429.387 177.25 429.357 177.28 429.33C177.308 429.302 177.336 429.266 177.371 429.231C177.387 429.209 177.406 429.19 177.428 429.175C177.483 429.111 177.545 429.052 177.611 428.999C177.862 428.768 178.13 428.556 178.414 428.365C178.512 428.302 178.618 428.238 178.716 428.168C179.426 427.743 180.173 427.385 180.948 427.097C181.216 426.999 181.483 426.907 181.772 426.809C181.878 426.781 181.976 426.745 182.082 426.71C182.237 426.661 182.392 426.612 182.554 426.576C183.356 426.337 184.222 426.133 185.159 425.942C185.44 425.886 185.736 425.83 186.032 425.781C186.271 425.738 186.518 425.696 186.764 425.654C188.855 425.323 191.228 425.076 193.847 424.914C194.094 424.9 194.34 424.886 194.587 424.872C194.875 424.858 195.164 424.844 195.46 424.83C195.706 424.816 195.96 424.809 196.213 424.802C196.46 424.788 196.713 424.781 196.974 424.773C197.685 424.752 198.417 424.731 199.163 424.717C201.29 424.682 203.529 424.696 205.88 424.745C206.972 424.766 208.084 424.802 209.225 424.851C209.295 424.851 209.373 424.858 209.443 424.858C210.436 424.886 211.443 424.935 212.464 424.985C213.182 425.02 213.907 425.055 214.632 425.097C215.315 425.14 216.005 425.182 216.702 425.231C217.245 425.259 217.787 425.302 218.336 425.337C218.801 425.372 219.265 425.407 219.73 425.435C220.286 425.478 220.843 425.52 221.406 425.562C222.18 425.626 222.955 425.689 223.743 425.752C224.525 425.823 225.321 425.893 226.116 425.964C226.912 426.034 227.715 426.111 228.517 426.189C228.602 426.196 228.679 426.203 228.757 426.21C229.489 426.288 230.221 426.358 230.961 426.435C235.058 426.851 239.276 427.337 243.613 427.893C246.204 428.224 248.828 428.579 251.485 428.957C255.52 429.527 259.617 430.147 263.743 430.809C267.877 431.478 272.033 432.184 276.213 432.928C277.269 433.119 278.325 433.309 279.388 433.506C280.684 433.745 281.98 433.989 283.275 434.238C284.092 434.393 284.909 434.548 285.725 434.71C286.697 434.9 287.676 435.09 288.647 435.281C295.048 436.548 301.413 437.9 307.623 439.316C308.644 439.548 309.665 439.788 310.679 440.02C312.707 440.492 314.716 440.971 316.706 441.457C317.255 441.59 317.797 441.724 318.339 441.858C319.698 442.196 321.043 442.534 322.374 442.872V442.879C322.451 442.893 322.529 442.914 322.606 442.936C323.578 443.182 324.542 443.428 325.5 443.682C327.76 444.274 329.983 444.87 332.168 445.471C333.618 445.879 335.055 446.281 336.47 446.689C338.589 447.309 340.666 447.928 342.687 448.548C343.187 448.703 343.687 448.858 344.18 449.006C345.658 449.471 347.109 449.933 348.531 450.393C349.658 450.759 350.756 451.133 351.84 451.506C352.925 451.879 353.988 452.252 355.03 452.626C355.706 452.865 356.368 453.112 357.023 453.351C357.98 453.703 358.91 454.055 359.825 454.414C360.107 454.52 360.381 454.633 360.656 454.738C361.17 454.936 361.67 455.14 362.162 455.344C362.493 455.471 362.817 455.605 363.141 455.745C363.458 455.872 363.782 456.006 364.092 456.14C364.409 456.267 364.718 456.4 365.028 456.541C365.289 456.647 365.542 456.759 365.789 456.872C366.289 457.09 366.788 457.309 367.274 457.534C367.514 457.647 367.753 457.752 367.992 457.865L368.542 458.119C368.619 458.161 368.697 458.196 368.774 458.231C369.372 458.513 369.95 458.795 370.513 459.076C371.041 459.344 371.555 459.612 372.048 459.872C372.632 460.182 373.189 460.485 373.724 460.795C373.829 460.851 373.935 460.914 374.041 460.971C374.4 461.175 374.745 461.386 375.09 461.59C375.766 462.006 376.406 462.414 377.005 462.823C377.596 463.231 378.146 463.633 378.66 464.034C378.66 464.041 378.66 464.041 378.667 464.041C378.913 464.238 379.152 464.436 379.378 464.626C379.744 464.943 380.082 465.245 380.392 465.555C380.496 465.651 380.594 465.752 380.687 465.858C380.728 465.892 380.766 465.93 380.8 465.971C380.948 466.133 381.096 466.295 381.237 466.457C381.406 466.654 381.561 466.851 381.708 467.048C381.779 467.147 381.856 467.245 381.92 467.344C382.004 467.464 382.089 467.59 382.159 467.71C382.222 467.809 382.279 467.914 382.335 468.013C382.484 468.267 382.612 468.533 382.715 468.809C382.792 468.997 382.856 469.19 382.905 469.386C382.959 469.573 382.999 469.764 383.025 469.957Z" fill="black"/>
</g>
<defs>
<clipPath id="clip0_14_204">
<rect width="554" height="403" fill="white" transform="translate(0 145)"/>
</clipPath>
</defs>
</svg>
